The Pianist*2002*[HDDVD][1080p][ENG, POL]

General information:
Country: France, Poland, Germany, UK 
Release: 24 May 2002 (Cannes Film Festival)
Genre: Biography, Drama, War 
Director: Roman Polanski
Screenplay: Ronald Harwood, Wladyslaw Szpilman (based on the book by)
Original Music: Wojciech Kilar
Cinematography by: Pawel Edelman
Duration: 2h 28mn
Language: English, Polish
Subtitles: English, Polish
Rating: 8.4/10 - 64997 votes

Cast:
Adrien Brody  ...  Wladyslaw Szpilman  
Emilia Fox  ...  Dorota  
Michal Zebrowski  ...  Jurek  
Ed Stoppard  ...  Henryk  
Maureen Lipman  ...  Mother  
Frank Finlay  ...  Father  
Jessica Kate Meyer  ...  Halina  
Julia Rayner  ...  Regina  
Wanja Mues  ...  SS Slapping Father  
Richard Ridings  ...  Mr. Lipa  
Nomi Sharron  ...  Feather Woman  
Anthony Milner  ...  Man Waiting to Cross  
Lucy Skeaping  ...  Street Musician (as Lucie Skeaping)  
Roddy Skeaping  ...  Street Musician  
Ben Harlan  ...  Street Musician  

Plot:
A Polish Jewish musician struggles to survive the destruction of the Warsaw ghetto of World War II. 

Specifications:
General
Format                           : Matroska
Overall bit rate                 : 12.0 Mbps

Video
Format                           : AVC
Format/Info                      : Advanced Video Codec
Format profile                   : High@L4.1
Format settings, CABAC           : Yes
Format settings, ReFrames        : 4 frames
Muxing mode                      : Container profile=Unknown@4.1
Codec ID                         : V_MPEG4/ISO/AVC
Bit rate                         : 10.3 Mbps
Width                            : 1 920 pixels
Height                           : 1 040 pixels
Display aspect ratio             : 16:9
Frame rate                       : 23.976 fps

Audio 1
Format                           : DTS
Format/Info                      : Digital Theater Systems
Codec ID                         : A_DTS
Bit rate mode                    : Constant
Bit rate                         : 1 510 Kbps
Channel(s)                       : 6 channels
Channel positions                : Front: L C R, Side: L R, LFE
Sampling rate                    : 48.0 KHz
Bit depth                        : 24 bits
Stream size                      : 1.57 GiB (13%)
Title                            : English

Audio 2
Format                           : AC-3
Format/Info                      : Audio Coding 3
Mode extension                   : CM (complete main)
Codec ID                         : A_AC3
Bit rate mode                    : Constant
Bit rate                         : 192 Kbps
Channel(s)                       : 2 channels
Channel positions                : Front: L R
Sampling rate                    : 48.0 KHz
Stream size                      : 204 MiB (2%)
Title                            : Polish
Language                         : Polish

Text 1
Format                           : UTF-8
Codec ID                         : S_TEXT/UTF8
Codec ID/Info                    : UTF-8 Plain Text
Title                            : English

Text 2
ID                               : 5
Format                           : UTF-8
Codec ID                         : S_TEXT/UTF8
Codec ID/Info                    : UTF-8 Plain Text
Title                            : Polish
Language                         : Polish
